<?xml version="1.0" encoding="UTF-8" standalone="no"?>
<!-- Created with Inkscape (http://www.inkscape.org/) -->

<svg
   version="1.1"
   id="svg103"
   width="1489.4545"
   height="1489.4545"
   viewBox="0 0 1489.4545 1489.4545"
   sodipodi:docname="light_logo.svg"
   inkscape:version="1.2.2 (b0a8486541, 2022-12-01)"
   xmlns:inkscape="http://www.inkscape.org/namespaces/inkscape"
   xmlns:sodipodi="http://sodipodi.sourceforge.net/DTD/sodipodi-0.dtd"
   xmlns="http://www.w3.org/2000/svg"
   xmlns:svg="http://www.w3.org/2000/svg">
  <defs
     id="defs107" />
  <sodipodi:namedview
     id="namedview105"
     pagecolor="#ffffff"
     bordercolor="#000000"
     borderopacity="0.25"
     inkscape:showpageshadow="2"
     inkscape:pageopacity="0.0"
     inkscape:pagecheckerboard="0"
     inkscape:deskcolor="#d1d1d1"
     showgrid="false"
     inkscape:zoom="0.35355339"
     inkscape:cx="183.84776"
     inkscape:cy="914.99617"
     inkscape:window-width="1920"
     inkscape:window-height="1080"
     inkscape:window-x="0"
     inkscape:window-y="0"
     inkscape:window-maximized="1"
     inkscape:current-layer="svg103" />
  <g
     inkscape:groupmode="layer"
     id="layer3"
     inkscape:label="Image 1">
    <rect
       style="fill:#f2f2f2;fill-opacity:1"
       id="rect986"
       width="1489.5774"
       height="1489.6332"
       x="-0.075210765"
       y="-0.15475988" />
  </g>
  <g
     inkscape:groupmode="layer"
     id="layer4"
     inkscape:label="Image 2">
    <g
       id="g876">
      <path
         style="display:inline;fill:#494949;stroke-width:0.727273"
         d="m 725.09089,1076.8069 c -7.10693,-1.5802 -18.35979,-8.6481 -21.42872,-13.4594 -0.91925,-1.4411 -4.69266,-7.3657 -8.38536,-13.1657 -3.6927,-5.8 -8.27781,-12.6727 -10.18914,-15.2727 -6.0321,-8.2056 -22.44421,-36.44724 -31.69799,-54.54549 -1.31953,-2.58066 -2.39038,-8.27077 -5.06416,-26.90909 -12.69641,-88.50364 -15.35913,-106.2336 -16.05957,-106.93404 -0.56603,-0.56603 -2.50803,-0.41898 -6.8907,0.52189 -9.00638,1.93331 -26.16777,1.75455 -36.09066,-0.37614 -26.92589,-5.78146 -51.43084,-22.47702 -65.82581,-44.84807 -8.87232,-13.78837 -13.35538,-26.24982 -15.1125,-42.00786 -1.75966,-15.78072 2.78356,-34.82567 11.42154,-47.87855 2.74417,-4.14671 5.7537,-5.02531 17.15597,-5.00848 39.49917,0.0583 75.93401,16.10618 95.44151,42.03765 14.46067,19.22269 20.2748,42.22844 16.96148,67.11426 -0.66761,5.01432 -0.66016,6.84959 0.034,8.37309 0.48895,1.07309 5.59928,34.54756 11.35629,74.38778 5.75702,39.84014 10.8012,73.92581 11.20928,75.74588 1.23245,5.49688 13.62934,25.92507 29.10682,47.96347 3.23054,4.6 7.70473,11.3091 9.94264,14.9091 5.86699,9.4379 6.09672,9.6361 10.72675,9.2521 4.37993,-0.3632 6.86763,0.6584 14.75869,6.0609 7.50349,5.137 9.02858,5.137 16.53207,0 7.89105,-5.4025 10.37876,-6.4241 14.75869,-6.0609 4.63004,0.384 4.85978,0.1858 10.72676,-9.2521 2.23789,-3.6 6.71208,-10.3091 9.94262,-14.9091 15.47745,-22.0384 27.8744,-42.46659 29.10684,-47.96347 0.40807,-1.82007 5.45221,-35.90574 11.20923,-75.74588 5.75702,-39.84022 10.86735,-73.31469 11.35629,-74.38778 0.69418,-1.5235 0.7016,-3.35877 0.0342,-8.37309 -3.31338,-24.88582 2.5008,-47.89157 16.96146,-67.11426 19.50749,-25.93147 55.94232,-41.97936 95.44152,-42.03765 11.40226,-0.0168 14.41178,0.86177 17.15593,5.00848 8.63796,13.05288 13.18124,32.09783 11.42153,47.87855 -1.75709,15.75804 -6.24015,28.21949 -15.11244,42.00786 -14.39498,22.37105 -38.89993,39.06661 -65.82582,44.84807 -9.9229,2.13069 -27.08429,2.30945 -36.09069,0.37614 -4.38269,-0.94087 -6.32465,-1.08792 -6.89069,-0.52189 -0.70043,0.70044 -3.3632,18.4304 -16.05956,106.93404 -2.67382,18.63832 -3.74465,24.32843 -5.06414,26.90909 -9.25382,18.09825 -25.66589,46.33989 -31.69804,54.54549 -1.91135,2.6 -6.49644,9.4727 -10.18909,15.2727 -3.69273,5.8 -7.46611,11.7246 -8.38538,13.1657 -3.2584,5.1083 -15.10778,12.3117 -22.50066,13.6783 -5.78901,1.0702 -33.1072,0.9136 -38.20079,-0.2189 z M 623.84933,828.30659 c 2.14411,-0.59265 3.43676,-1.47156 4.12674,-2.80582 3.08233,-5.96058 4.33817,-27.20196 2.25267,-38.10188 -2.06877,-10.81251 -8.75138,-23.70073 -16.74733,-32.2992 -6.08013,-6.53833 -12.4838,-11.3064 -22.12722,-16.47564 -14.56274,-7.80625 -29.7236,-11.82187 -47.46173,-12.57106 l -10.65297,-0.44995 -1.10813,2.1429 c -5.55909,10.75011 -6.75419,27.98851 -2.96544,42.77418 1.45129,5.66371 6.388,16.10938 10.72385,22.69084 11.43338,17.35476 34.34065,32.1552 55.0193,35.54807 7.12611,1.16916 24.02975,0.90494 28.94026,-0.45244 z m 269.24155,0.4608 c 26.31935,-3.97011 51.47309,-22.66356 62.5688,-46.4992 7.30189,-15.68589 8.82415,-32.64116 4.26095,-47.45985 -2.82684,-9.18004 -2.61659,-8.99018 -9.9584,-8.99018 -21.10829,0 -43.52422,6.60996 -60.52458,17.84734 -6.71222,4.43688 -18.696,16.98589 -22.19659,23.24357 -3.8805,6.9368 -7.28763,16.32582 -8.34974,23.00931 -1.70531,10.73069 0.17985,32.49599 3.16851,36.58327 2.10596,2.88 18.85265,4.10276 31.03105,2.26574 z m -168.88561,21.07695 c -2.92593,-1.00589 -16.70601,-14.10793 -22.98235,-21.85142 -2.27261,-2.80393 -5.54371,-7.43978 -7.2691,-10.30196 -2.80171,-4.64764 -3.2533,-6.04633 -4.22426,-13.08386 -4.68256,-33.93905 -25.60871,-77.84326 -53.99308,-113.28048 -18.83584,-23.51609 -40.81629,-41.99788 -55.92971,-47.0273 -5.06998,-1.68718 -7.62106,-1.62962 -16.17042,0.3649 -16.69258,3.89428 -37.18888,-1.79835 -52.78081,-14.65929 -2.54922,-2.10272 -5.02015,-3.82313 -5.49094,-3.82313 -0.4708,0 -2.52499,0.81478 -4.56486,1.81062 -2.03986,0.99583 -6.4824,2.51046 -9.87231,3.36582 -12.01055,3.0306 -28.52592,0.75682 -42.68008,-5.87604 -33.18543,-15.55121 -65.40283,-50.75564 -87.54716,-95.66403 -11.29274,-22.90153 -18.44985,-44.37588 -22.60159,-67.81425 -1.97729,-11.16265 -2.63734,-31.65163 -1.38237,-42.91116 l 0.9198,-8.25243 -2.86904,-2.4558 c -3.66867,-3.14024 -7.24837,-9.85425 -8.07937,-15.15344 -1.41026,-8.99307 2.29398,-18.84616 9.00604,-23.95561 13.02768,-9.91714 30.92476,-5.46504 38.30638,9.52916 2.13952,4.34599 2.363,5.42307 2.35737,11.36187 -0.005,5.64714 -0.27983,7.11904 -1.97112,10.56987 -2.58992,5.28439 -7.15811,9.79244 -12.32754,12.16527 -2.30597,1.05846 -4.35393,2.34472 -4.55103,2.85834 -0.1971,0.51364 -0.70679,4.98006 -1.13266,9.92539 -2.54276,29.52764 7.07158,67.15334 26.4228,103.40551 6.27874,11.76246 18.128,29.25429 26.97003,39.81306 8.71252,10.40411 20.91096,21.88366 30.63816,28.83256 7.66093,5.4728 20.54623,11.83526 27.27676,13.46862 8.35327,2.02716 22.71995,1.14233 23.71888,-1.46084 0.20281,-0.5285 -1.28728,-3.83717 -3.31129,-7.35261 -11.46193,-19.90777 -17.78467,-43.53073 -18.74316,-70.02806 -0.45797,-12.66041 0.82763,-28.20678 3.03261,-36.67224 1.41928,-5.449 1.38376,-5.82841 -0.76247,-8.14422 -2.84518,-3.07001 -4.46865,-6.07171 -5.82474,-10.76965 -3.23345,-11.20172 2.41249,-23.19325 13.48007,-28.63057 3.45196,-1.69589 4.8968,-1.96422 10.54546,-1.95844 5.76932,0.006 7.01975,0.25258 10.54545,2.08033 8.78261,4.55298 13.81818,12.67095 13.81818,22.27661 0,11.31045 -6.4531,20.10692 -17.36997,23.67764 -4.34542,1.42131 -4.60246,2.02325 -6.29587,14.7441 -1.94498,14.61057 -1.17642,34.24576 1.89696,48.46363 1.81587,8.40047 2.19479,8.77763 7.68253,7.64686 28.71594,-5.91705 57.53611,-29.89782 79.52167,-66.16859 5.36879,-8.85717 13.10176,-24.46701 13.10673,-26.45731 0.002,-0.75152 -1.16495,-2.65963 -2.59294,-4.24024 -4.31246,-4.77339 -5.69799,-8.69283 -5.73079,-16.21154 -0.0254,-5.82368 0.20615,-7.00984 2.0999,-10.75672 6.28151,-12.42832 21.17924,-17.4628 33.39044,-11.28383 10.96046,5.54607 16.40643,19.24929 12.1416,30.55082 -2.25414,5.97335 -7.1646,11.10558 -13.69537,14.31393 l -5.35421,2.63034 -3.83409,8.36364 c -19.15084,41.77537 -47.22172,73.50564 -79.33022,89.67186 -6.29755,3.17074 -22.87622,9.23722 -25.24376,9.23722 -3.72653,0 -0.17879,7.65089 8.66227,18.68066 9.10259,11.35602 17.23423,17.45316 27.38537,20.53365 6.71618,2.0381 16.75196,2.06753 23.13132,0.0678 6.14925,-1.92758 11.53243,-1.83449 18.99653,0.32852 15.12996,4.38449 30.00247,14.01318 46.60565,30.1732 41.46181,40.35512 74.74335,102.09159 80.50877,149.34184 0.80298,6.58087 1.08151,7.3872 3.64249,10.54545 1.52516,1.88088 6.6276,6.87498 11.33875,11.09804 9.70024,8.6952 12.38918,12.66109 11.5646,17.05651 -1.05498,5.62378 -6.89949,9.11534 -12.20489,7.29142 z M 497.54146,481.75792 c 7.555,-5.23561 7.50382,-17.22481 -0.096,-22.4915 -11.67072,-8.08782 -26.56963,5.17327 -19.99767,17.79934 3.60799,6.93168 13.52157,9.24664 20.09368,4.69216 z M 617.08274,462.9646 c 3.21443,-2.45176 5.43075,-6.9265 5.43075,-10.96461 0,-4.03812 -2.21632,-8.51285 -5.43075,-10.96461 -3.74104,-2.85344 -10.37164,-3.34607 -14.77824,-1.09799 -8.04238,4.10292 -9.70004,15.85583 -3.12483,22.15528 2.70782,2.59426 5.31036,3.35231 10.73301,3.12625 3.60742,-0.15038 4.97565,-0.58056 7.17006,-2.25432 z M 355.79559,403.60434 c 7.47169,-2.07509 11.75753,-10.56909 9.19487,-18.2231 -2.10027,-6.27296 -7.62316,-10.31631 -14.09126,-10.31631 -5.56336,0 -10.80109,3.48749 -12.67112,8.43695 -1.08226,2.86443 -0.96379,8.82872 0.23064,11.61238 1.36275,3.17589 5.48302,6.96126 8.90474,8.18092 3.4378,1.2254 4.93537,1.28031 8.43213,0.30916 z m 404.21486,446.50632 c -3.15098,-0.67432 -6.31978,-4.11221 -6.96611,-7.55774 -0.82458,-4.39542 1.86436,-8.36131 11.56458,-17.05651 4.7112,-4.22305 9.8136,-9.21716 11.33877,-11.09803 2.56101,-3.15826 2.83949,-3.96459 3.64247,-10.54546 5.76545,-47.25025 39.04698,-108.98672 80.5088,-149.34184 16.6032,-16.16002 31.4757,-25.78871 46.60567,-30.17319 7.46407,-2.16301 12.84727,-2.25611 18.99651,-0.32853 6.37934,1.99973 16.41512,1.9703 23.13134,-0.0678 10.15113,-3.08049 18.28276,-9.17763 27.38531,-20.53365 8.84109,-11.02979 12.3888,-18.68068 8.66233,-18.68068 -2.36757,0 -18.94626,-6.06648 -25.24379,-9.23722 -32.1085,-16.16622 -60.17941,-47.89649 -79.33025,-89.67186 l -3.83403,-8.36364 -5.35426,-2.63034 c -6.53076,-3.20835 -11.44123,-8.34058 -13.69534,-14.31393 -4.2648,-11.30153 1.18116,-25.00475 12.1416,-30.55082 12.2112,-6.17897 27.10894,-1.14449 33.39047,11.28383 1.89374,3.74688 2.12523,4.93304 2.09985,10.75672 -0.0327,7.51871 -1.41832,11.43815 -5.73076,16.21154 -1.428,1.58061 -2.59484,3.48872 -2.59295,4.24024 0.007,1.9903 7.73797,17.60014 13.10669,26.45731 21.9856,36.27077 50.80575,60.25154 79.52167,66.16859 5.48779,1.13077 5.8667,0.75361 7.68255,-7.64686 3.07343,-14.21787 3.84193,-33.85306 1.89694,-48.46363 -1.69338,-12.72085 -1.95039,-13.32279 -6.29585,-14.7441 -10.91687,-3.57072 -17.36996,-12.36719 -17.36996,-23.67764 0,-9.60566 5.03556,-17.72363 13.81818,-22.27661 3.52567,-1.82775 4.77614,-2.07443 10.54545,-2.08033 5.64867,-0.006 7.09357,0.26255 10.54547,1.95844 15.3764,7.55417 19.1534,26.9936 7.6553,39.40022 -2.1462,2.31581 -2.1817,2.69522 -0.7624,8.14422 4.406,16.91586 4.0812,46.62881 -0.7394,67.6446 -3.0934,13.48586 -8.759,28.26609 -14.9712,39.0557 -2.02399,3.51544 -3.51409,6.82411 -3.31133,7.35261 0.99898,2.60317 15.36563,3.488 23.71893,1.46084 6.7305,-1.63336 19.6158,-7.99582 27.2768,-13.46862 49.5666,-35.40931 88.8683,-115.8784 84.031,-172.05113 -0.4259,-4.94533 -0.9356,-9.41175 -1.1327,-9.92539 -0.1971,-0.51362 -2.2451,-1.79988 -4.5511,-2.85834 -5.1694,-2.37283 -9.7376,-6.88088 -12.3275,-12.16527 -1.6913,-3.45083 -1.9658,-4.92273 -1.9711,-10.56987 -0.01,-5.9388 0.2178,-7.01588 2.3573,-11.36187 7.3817,-14.9942 25.2787,-19.4463 38.3064,-9.52916 6.7121,5.10945 10.4163,14.96254 9.0061,23.95561 -0.831,5.29919 -4.4107,12.0132 -8.0794,15.15344 l -2.8691,2.4558 0.9199,8.25243 c 1.2537,11.24809 0.5948,31.74929 -1.3783,42.88741 -4.2,23.70852 -11.7627,46.30037 -23.061,68.89026 -22.2289,44.44445 -54.2358,79.21488 -87.0918,94.61177 -14.1542,6.63286 -30.6696,8.90664 -42.6801,5.87604 -3.38997,-0.85536 -7.83251,-2.36999 -9.87237,-3.36582 -2.03985,-0.99584 -4.09403,-1.81062 -4.5648,-1.81062 -0.47083,0 -2.94174,1.72041 -5.49098,3.82313 -8.66938,7.15092 -19.71905,12.55626 -30.21752,14.782 -6.21113,1.31678 -16.636,1.26009 -22.56328,-0.12271 -10.84676,-2.53049 -14.03578,-2.10613 -24.36363,3.24203 -16.81986,8.70995 -42.09513,33.80012 -59.43804,59.00282 -22.81527,33.15513 -38.33221,69.00087 -42.29156,97.69803 -0.97098,7.03753 -1.42254,8.43622 -4.22422,13.08386 -4.41403,7.32225 -10.14407,14.1768 -19.29025,23.07585 -4.33898,4.22175 -8.29927,7.92946 -8.80073,8.23935 -1.89578,1.1717 -4.95309,1.62807 -7.39927,1.1045 z M 1003.7955,483.60434 c 12.4475,-3.45697 13.0696,-21.18937 0.9064,-25.83451 -11.61917,-4.4374 -22.52702,7.6755 -17.06768,18.95314 2.9387,6.0705 9.3112,8.78385 16.16128,6.88137 z M 885.94012,464.70553 c 3.14342,-0.87306 6.63651,-4.5801 7.88742,-8.37042 1.98683,-6.02 -1.07542,-13.53973 -6.67753,-16.39772 -4.40662,-2.24808 -11.03724,-1.75545 -14.77825,1.09799 -5.05506,3.85566 -6.7816,10.93195 -4.09491,16.78279 3.00371,6.54113 9.62058,9.12123 17.66327,6.88736 z M 1141.3242,403.5839 c 3.3858,-0.9402 8.3646,-5.28922 9.6961,-8.46964 1.1733,-2.80281 1.2793,-8.77202 0.2061,-11.61238 -2.759,-7.30238 -12.0695,-10.61132 -19.3733,-6.88523 -11.2406,5.73452 -10.6187,22.54813 0.987,26.68614 3.4298,1.22288 4.9153,1.27211 8.4841,0.28111 z"
         id="path223" />
      <path
         style="fill:#cec27a;fill-opacity:1;stroke-width:0.441189"
         d="m 869.63623,828.78477 c -3.65297,-0.56916 -6.07819,-1.34897 -7.0705,-2.27345 -2.0492,-1.90912 -3.51944,-10.7785 -3.86675,-23.32653 -0.29406,-10.62447 0.19816,-14.38608 2.96698,-22.67387 3.48293,-10.42529 6.81319,-16.02529 14.62854,-24.59869 8.67748,-9.51914 17.34854,-15.5469 29.97324,-20.83618 13.65142,-5.71944 27.64661,-8.67643 41.68728,-8.80794 6.87241,-0.0644 7.64526,0.006 8.4929,0.76965 1.05084,0.94714 3.51961,8.17915 4.75844,13.93937 0.61992,2.88248 0.80084,5.58743 0.78198,11.69151 -0.0274,8.88378 -0.76646,13.47302 -3.48117,21.61827 -8.7095,26.13205 -33.29308,47.46692 -61.79028,53.62472 -3.63368,0.78518 -6.20178,0.97889 -14.55924,1.09819 -5.58105,0.0797 -11.21569,-0.0216 -12.52142,-0.22505 z"
         id="path730" />
      <path
         style="fill:#7ac0ce;fill-opacity:1;stroke-width:0.441189"
         d="m 596.67762,828.75327 c -13.90231,-1.81599 -30.38095,-9.76057 -43.20587,-20.83015 -8.40612,-7.25558 -13.69058,-14.27241 -19.11738,-25.38452 -5.5322,-11.32793 -6.86669,-17.06669 -6.89464,-29.64937 -0.0241,-10.83953 1.28874,-17.65947 4.70446,-24.43894 l 1.31001,-2.60008 7.57223,0.31226 c 18.85545,0.77755 32.51754,4.00914 46.83807,11.07895 11.05049,5.45544 17.9203,10.33431 24.94384,17.71485 8.70309,9.14546 15.68574,22.94551 17.41496,34.41777 1.1883,7.88357 0.75534,22.66793 -0.90001,30.73303 -1.3217,6.43954 -2.96188,7.85472 -10.00668,8.63398 -4.83573,0.53491 -18.60074,0.54233 -22.65899,0.0122 z"
         id="path801" />
    </g>
  </g>
</svg>
