<?xml version="1.0" encoding="UTF-8" standalone="no"?>
<!-- Created with Inkscape (http://www.inkscape.org/) -->

<svg
   version="1.1"
   id="svg3563"
   width="1489.4545"
   height="1489.4545"
   viewBox="0 0 1489.4545 1489.4545"
   sodipodi:docname="dark_logo.svg"
   inkscape:version="1.2.2 (b0a8486541, 2022-12-01)"
   xmlns:inkscape="http://www.inkscape.org/namespaces/inkscape"
   xmlns:sodipodi="http://sodipodi.sourceforge.net/DTD/sodipodi-0.dtd"
   xmlns="http://www.w3.org/2000/svg"
   xmlns:svg="http://www.w3.org/2000/svg">
  <defs
     id="defs3567" />
  <sodipodi:namedview
     id="namedview3565"
     pagecolor="#ffffff"
     bordercolor="#000000"
     borderopacity="0.25"
     inkscape:showpageshadow="2"
     inkscape:pageopacity="0.0"
     inkscape:pagecheckerboard="0"
     inkscape:deskcolor="#d1d1d1"
     showgrid="false"
     inkscape:zoom="0.82700078"
     inkscape:cx="716.4443"
     inkscape:cy="740.62808"
     inkscape:window-width="1920"
     inkscape:window-height="1080"
     inkscape:window-x="0"
     inkscape:window-y="0"
     inkscape:window-maximized="1"
     inkscape:current-layer="layer6" />
  <g
     inkscape:groupmode="layer"
     inkscape:label="Image"
     id="g3569">
    <rect
       style="fill:#212121;fill-opacity:1"
       id="rect4367"
       width="1763.7251"
       height="1654.3771"
       x="-148.93132"
       y="-87.902878"
       ry="0.029597282" />
  </g>
  <g
     inkscape:groupmode="layer"
     id="layer6"
     inkscape:label="Image 1">
    <path
       style="display:inline;fill:#fcfcfc;stroke-width:0.727273"
       d="m 729.81816,1077.0824 c -6.34604,-0.7459 -9.69035,-1.8259 -14.35807,-4.6366 -6.31842,-3.8047 -10.61114,-7.6105 -12.7384,-11.2933 -1.05928,-1.8339 -5.70501,-9.0091 -10.32383,-15.945 -14.86152,-22.3167 -26.54987,-41.5221 -32.38201,-53.20753 -1.49728,-3 -3.81754,-7.25455 -5.15613,-9.45455 l -2.43381,-4 -9.50877,-65.81527 c -5.57943,-38.61818 -9.87491,-66.17403 -10.39479,-66.68348 -0.68697,-0.6731 -1.8663,-0.62059 -5.24964,0.23396 -6.77375,1.71084 -25.5072,2.1248 -33.45455,0.73927 -10.46805,-1.82502 -19.0053,-4.57833 -28.36363,-9.14749 -27.82067,-13.58327 -47.12713,-36.86349 -54.62846,-65.87243 -1.8724,-7.24088 -2.06346,-9.10415 -2.01358,-19.63637 0.0481,-10.16138 0.29859,-12.55163 1.976,-18.85716 2.33672,-8.78397 7.4691,-19.55543 10.88098,-22.8362 3.41214,-3.28101 9.39712,-4.04579 23.73242,-3.03258 54.41267,3.84586 93.27322,32.99234 102.78243,77.08958 1.74239,8.08 2.06455,25.07702 0.61781,32.59542 -0.74641,3.87898 -0.71115,5.0696 0.22612,7.63636 0.61071,1.67251 5.72364,35.10167 11.36204,74.28705 5.63842,39.18538 10.54511,72.79353 10.90379,74.6848 1.04658,5.51862 12.68271,24.87505 29.44314,48.97822 3.05961,4.4 7.90902,11.6 10.77647,16 l 5.21356,8 4.79919,0.1063 c 5.17021,0.1145 7.57048,1.0446 13.12866,5.0876 1.8603,1.3533 4.88757,3.1262 6.72728,3.9399 l 3.34487,1.4797 3.34487,-1.4797 c 1.83971,-0.8137 4.86698,-2.5866 6.72728,-3.9399 5.55818,-4.043 7.95847,-4.9731 13.12865,-5.0876 l 4.7992,-0.1063 5.21353,-8 c 2.86749,-4.4 7.71687,-11.6 10.77651,-16 16.76043,-24.10317 28.39658,-43.4596 29.44312,-48.97822 0.35869,-1.89127 5.26538,-35.49942 10.90378,-74.6848 5.6384,-39.18538 10.75135,-72.61454 11.36204,-74.28705 0.93731,-2.56676 0.97258,-3.75738 0.22611,-7.63636 -1.44669,-7.5184 -1.12458,-24.51542 0.61782,-32.59542 9.50923,-44.09724 48.36981,-73.24372 102.78247,-77.08958 14.33527,-1.01321 20.32029,-0.24843 23.73243,3.03258 3.41186,3.28077 8.54422,14.05223 10.88095,22.8362 1.67738,6.30553 1.92785,8.69578 1.976,18.85716 0.0502,10.53222 -0.14117,12.39549 -2.0136,19.63637 -10.04015,38.8272 -42.2144,67.91083 -82.99207,75.01992 -7.94735,1.38553 -26.6808,0.97157 -33.45455,-0.73927 -3.38334,-0.85455 -4.56269,-0.90706 -5.24967,-0.23396 -0.51986,0.50945 -4.81535,28.0653 -10.39476,66.68348 l -9.5088,65.81527 -2.43375,4 c -1.33862,2.2 -3.65891,6.45455 -5.15614,9.45455 -5.83215,11.68543 -17.52051,30.89083 -32.38204,53.20753 -4.61884,6.9359 -9.2792,14.1361 -10.35636,16.0005 -3.27877,5.6749 -13.30837,12.7464 -21.1368,14.9028 -4.21448,1.1609 -28.51477,1.8213 -35.74531,0.9716 z M 618.90907,829.06732 c 7.57203,-1.18502 8.51418,-1.77069 9.73672,-6.05244 1.93893,-6.7909 2.62692,-12.2653 2.62692,-20.90269 0,-19.45978 -5.83431,-33.97367 -19.2181,-47.80836 -16.39989,-16.95236 -40.58974,-26.98858 -68.07946,-28.24563 -11.77456,-0.53844 -11.48506,-0.70394 -14.17073,8.10098 -9.84433,32.27454 7.11956,67.80974 41.10465,86.10421 14.13598,7.60946 33.24131,11.11368 48,8.80393 z m 272.28581,-0.0466 c 17.76116,-2.17825 36.80153,-12.05054 49.87636,-25.8605 18.93571,-20.00044 25.78568,-45.37367 18.60488,-68.91578 -2.62742,-8.61406 -2.83731,-8.74019 -13.67382,-8.21942 -27.75826,1.33396 -52.33745,11.46582 -68.6024,28.27869 -9.74909,10.0776 -15.49251,20.84116 -18.16902,34.05033 -2.35352,11.61527 -0.36429,34.18639 3.35978,38.12174 2.67259,2.82422 16.38189,4.04393 28.60422,2.54494 z m -167.16042,20.39462 c -2.37941,-0.71054 -17.31265,-15.15498 -22.89206,-22.14276 -6.96229,-8.71971 -9.58092,-13.89505 -10.6716,-21.09091 -3.32801,-21.95694 -9.41158,-39.92327 -21.79417,-64.36363 -13.67693,-26.99513 -30.59949,-50.71266 -50.09914,-70.21561 -15.64467,-15.64733 -29.93988,-25.52197 -41.07829,-28.3755 -4.2868,-1.09823 -4.77781,-1.07729 -11.17335,0.47651 -8.97075,2.17944 -20.295,2.17989 -28.50768,10e-4 -7.63908,-2.02658 -17.66581,-7.06058 -24,-12.0494 -9.05579,-7.13235 -7.71566,-6.71441 -13.29425,-4.14599 -7.73725,3.56229 -13.31334,4.72525 -22.34212,4.6597 -21.33162,-0.15488 -44.70886,-11.82716 -67.72287,-33.81413 -50.16638,-47.92787 -81.86047,-128.48998 -72.59894,-184.53695 0.38504,-2.33006 0.0852,-2.89189 -3.54367,-6.63947 -5.29504,-5.46829 -7.33654,-10.59478 -7.34786,-18.45144 -0.014,-9.74374 4.24161,-16.88064 12.8241,-21.50654 4.21848,-2.27373 5.07595,-2.46492 11.11652,-2.47861 5.21239,-0.0119 7.24417,0.30794 9.97617,1.57008 4.8101,2.22218 10.3732,7.68227 12.74225,12.50631 1.78717,3.63917 2.00879,4.89315 2.00829,11.36331 -4.9e-4,6.46261 -0.21489,7.67779 -1.92469,10.90909 -2.70339,5.10905 -6.67351,8.92019 -11.83133,11.35755 -5.4504,2.57563 -5.44154,2.54725 -5.99094,19.1879 -0.63518,19.23909 2.11219,35.96265 9.56873,58.24595 11.85909,35.43997 31.31876,67.69468 55.2492,91.5764 21.0767,21.03381 42.96016,32.49622 59.99716,31.42612 6.57797,-0.41316 10.58943,-1.48745 11.16614,-2.99034 0.19269,-0.50213 -1.62312,-4.48836 -4.03514,-8.85828 -8.44336,-15.29713 -14.47401,-34.099 -16.85765,-52.55748 -2.153,-16.67234 -1.10859,-42.0934 2.22153,-54.07224 l 1.15063,-4.13896 -2.54158,-3.13377 c -4.9814,-6.14209 -5.98583,-8.92638 -5.98418,-16.58831 0.001,-6.14668 0.22455,-7.33319 2.0229,-10.75225 9.73982,-18.51758 35.22743,-17.81689 44.02939,1.21043 3.84673,8.31551 2.0388,18.82138 -4.48078,26.03777 -2.82111,3.12262 -8.2021,6.3303 -11.9467,7.12155 -1.30332,0.2754 -2.6512,1.04686 -2.99528,1.71434 -0.34407,0.66749 -1.23404,4.97725 -1.97769,9.57725 -2.6731,16.53491 -1.31692,44.63821 2.75503,57.09091 0.82856,2.53384 1.26421,2.93909 3.37742,3.14165 3.45739,0.33141 14.58389,-3.03337 22.63332,-6.84457 20.41426,-9.66563 39.18232,-27.06996 55.2223,-51.20971 7.09291,-10.67465 18.99095,-32.86856 18.99095,-35.42462 0,-0.76484 -1.01234,-2.35185 -2.24964,-3.52668 -4.91854,-4.67024 -7.62878,-13.62057 -6.31433,-20.85253 1.41956,-7.81027 6.97413,-14.90785 14.22237,-18.17321 4.87074,-2.19428 14.43327,-2.22331 19.19663,-0.0583 10.64585,4.83877 16.84718,17.17729 14.07393,28.00233 -0.62885,2.45466 -1.77072,5.47159 -2.53749,6.70431 -2.56116,4.11752 -7.68298,8.44581 -12.0875,10.21479 -2.60475,1.04613 -4.65806,2.39754 -5.20084,3.423 -0.49328,0.93193 -3.36614,6.73529 -6.38412,12.89635 -24.12435,49.24861 -59.42087,82.55983 -97.99334,92.48161 -2.82216,0.72593 -5.39185,1.7416 -5.71043,2.25706 -1.042,1.686 5.86964,13.34415 12.13448,20.46773 9.27146,10.54234 17.46877,16.09718 27.56534,18.67945 7.1897,1.83882 12.92757,1.83826 20.60374,-0.002 11.26069,-2.69957 20.0828,-1.31956 32.98299,5.15941 22.85799,11.48015 49.38018,38.03022 71.49781,71.57296 9.44755,14.32779 12.78972,20.09091 19.96026,34.41876 12.58853,25.15389 20.60533,50.08582 22.30457,69.36633 0.47738,5.41665 0.6178,5.74756 4.2147,9.93425 2.04647,2.38204 7.35475,7.61091 11.79616,11.61964 8.1135,7.32305 10.47248,10.56996 10.46747,14.40727 -0.007,3.00763 -2.55644,6.7272 -5.44444,7.93389 -2.80116,1.1704 -3.44654,1.19818 -6.51839,0.2808 z M 495.85428,483.33764 c 4.50064,-2.35124 8.16163,-8.18321 8.12973,-12.95066 -0.023,-3.43209 -2.25275,-7.85588 -5.31485,-10.54445 -9.07889,-7.97137 -23.03281,-1.48724 -23.03281,10.70291 0,5.69208 2.63492,10.06377 7.63798,12.67244 2.73218,1.42459 9.95076,1.49331 12.57995,0.11976 z m 120.81483,-19.57649 c 3.73442,-2.47132 6.06569,-6.94388 6.13546,-11.77096 0.20125,-13.92316 -18.3462,-19.49039 -25.79617,-7.74301 -3.64784,5.75206 -2.57858,14.2079 2.37535,18.78444 3.93203,3.63249 12.36112,3.98824 17.28536,0.72953 z M 358.3926,402.98647 c 5.47372,-2.79368 7.68959,-7.03703 7.29758,-13.97474 -0.34159,-6.04531 -2.86214,-10.1536 -7.87201,-12.83075 -4.73234,-2.52885 -11.17686,-2.10752 -15.06386,0.98482 -9.05794,7.20614 -7.48524,20.58118 3.06386,26.05644 3.03027,1.57279 9.25972,1.45599 12.57443,-0.23577 z m 400.34898,446.11707 c -2.75986,-1.19978 -5.28051,-4.96938 -5.28437,-7.90277 -0.007,-3.8373 2.35397,-7.08421 10.46749,-14.40727 4.44139,-4.00873 9.74968,-9.2376 11.79615,-11.61963 3.59687,-4.18669 3.73731,-4.5176 4.21469,-9.93426 1.69927,-19.28051 9.71607,-44.21243 22.30458,-69.36632 7.17055,-14.32786 10.51273,-20.09098 19.96022,-34.41877 22.11767,-33.54274 48.63985,-60.0928 71.49781,-71.57295 12.90022,-6.47898 21.72233,-7.85899 32.98306,-5.15941 7.67614,1.84024 13.41396,1.84079 20.60371,0.002 10.09658,-2.58227 18.29389,-8.13712 27.5653,-18.67945 6.26488,-7.12358 13.17651,-18.78174 12.13448,-20.46773 -0.31855,-0.51546 -2.88822,-1.53113 -5.7104,-2.25706 -38.57244,-9.92178 -73.86902,-43.233 -97.99331,-92.48161 -3.01804,-6.16106 -5.89083,-11.96442 -6.38414,-12.89635 -0.54277,-1.02546 -2.59608,-2.37687 -5.20088,-3.42301 -4.40451,-1.76897 -9.52632,-6.09726 -12.08749,-10.21478 -5.65629,-9.09348 -3.55716,-22.38268 4.74408,-30.03453 5.18385,-4.77831 9.00676,-6.22322 16.37469,-6.18895 7.3728,0.0342 11.32116,1.5308 16.40669,6.21847 9.80989,9.04243 10.34771,25.61642 1.11563,34.38237 -1.23723,1.17484 -2.2496,2.76185 -2.2496,3.52668 0,2.55606 11.89804,24.74997 18.99098,35.42463 16.03993,24.13974 34.808,41.54408 55.22226,51.2097 8.04945,3.8112 19.17592,7.17598 22.63331,6.84457 2.11323,-0.20256 2.54887,-0.6078 3.37745,-3.14165 4.07193,-12.4527 5.42813,-40.556 2.75505,-57.09091 -0.74371,-4.6 -1.63367,-8.90976 -1.97774,-9.57725 -0.34407,-0.66748 -1.69193,-1.43894 -2.99527,-1.71434 -3.74459,-0.79125 -9.1256,-3.99892 -11.94669,-7.12155 -8.59026,-9.50836 -8.59026,-23.48353 0,-32.99189 6.8845,-7.62035 19.05508,-9.88768 28.50908,-5.31111 4.2648,2.06454 8.5879,6.39356 11.0395,11.0548 1.7984,3.41907 2.0216,4.60558 2.0229,10.75225 0,7.66193 -1.0028,10.44622 -5.9841,16.58832 l -2.5416,3.13376 1.1506,4.13896 c 3.3301,11.97885 4.3745,37.3999 2.2215,54.07224 -2.3846,18.46661 -8.6144,37.86219 -16.9563,52.79167 -2.3626,4.22841 -4.13606,8.10405 -3.94093,8.61253 0.58102,1.51412 4.57603,2.5877 11.17063,3.00191 24.9918,1.56973 59.4376,-23.72506 85.7097,-62.93953 20.6316,-30.79549 34.0967,-65.00665 38.4069,-97.58167 0.8031,-6.06945 0.9947,-11.75505 0.6984,-20.72728 -0.5493,-16.64064 -0.5405,-16.61226 -5.9909,-19.18789 -5.1578,-2.43736 -9.1279,-6.24851 -11.8313,-11.35756 -1.7098,-3.2313 -1.9242,-4.44648 -1.9247,-10.90909 -5e-4,-6.47015 0.2211,-7.72414 2.0083,-11.3633 2.369,-4.82405 7.9322,-10.28414 12.7423,-12.50632 2.732,-1.26213 4.7638,-1.5819 9.9761,-1.57008 6.0406,0.0137 6.8981,0.20489 11.1165,2.47862 8.5825,4.6259 12.8382,11.76279 12.8242,21.50653 -0.012,7.85667 -2.0529,12.98315 -7.348,18.45144 -3.6288,3.74758 -3.9286,4.30941 -3.5436,6.63947 1.3617,8.24009 1.9797,18.86357 1.5655,26.90909 -4.1782,81.166 -66.2379,173.9055 -126.8549,189.56675 -13.2087,3.41264 -25.9809,2.46101 -37.37451,-2.78469 -5.57862,-2.56843 -4.23847,-2.98637 -13.29426,4.14598 -15.21629,11.98439 -34.49076,16.40501 -52.5077,12.04272 -6.39251,-1.54777 -6.88851,-1.56868 -11.17331,-0.47097 -18.85193,4.82963 -47.19193,30.39394 -69.99935,63.14336 -23.29745,33.45306 -38.13949,67.92644 -42.97229,99.81139 -0.82596,5.44923 -1.51083,7.39803 -4.08974,11.63636 -4.47331,7.35171 -8.93498,12.6952 -18.6752,22.36611 -10.03695,9.96553 -12.35236,11.1472 -17.47716,8.91927 z M 1008.2561,481.94949 c 3.5724,-2.7248 5.5621,-6.80429 5.5621,-11.40405 0,-12.19015 -13.95394,-18.67428 -23.03285,-10.70291 -7.74676,6.80172 -6.68887,17.44765 2.30553,23.20117 3.44654,2.2047 11.61262,1.6155 15.16522,-1.09421 z M 885.45452,465.38076 c 8.25985,-2.25137 11.93025,-13.34604 6.99156,-21.13358 -7.44996,-11.74738 -25.99738,-6.18015 -25.79614,7.74301 0.14618,10.11234 8.64043,16.16101 18.80458,13.39057 z m 257.32638,-61.69569 c 2.9048,-1.10441 7.1683,-5.2766 8.59,-8.40611 2.8186,-6.20437 0.8881,-13.69078 -4.6707,-18.11316 -2.2522,-1.79175 -3.5781,-2.24068 -7.2727,-2.46246 -5.6392,-0.33851 -10.0219,1.74711 -13.2237,6.29292 -4.0089,5.69153 -3.2371,15.64319 1.537,19.82179 3.7432,3.27634 10.5505,4.57397 15.0401,2.86702 z"
       id="path3589" />
    <path
       style="fill:#d0c47a;fill-opacity:1;stroke-width:1.20919"
       d="m 867.26081,828.11967 c -4.37889,-0.96481 -6.37361,-5.47047 -7.77509,-17.56226 -4.99817,-43.12374 27.28538,-77.00745 79.28173,-83.21139 6.55838,-0.78251 13.16296,-1.11187 14.67686,-0.73191 4.36578,1.09574 6.90806,9.06551 7.57307,23.74067 0.53346,11.77233 0.30617,13.53758 -2.96504,23.02799 -8.11135,23.53265 -26.38461,41.65114 -51.26225,50.82808 -8.65103,3.19122 -12.1707,3.81103 -23.47775,4.13442 -7.31559,0.20923 -14.53878,0.10771 -16.05153,-0.2256 z"
       id="path4377" />
    <path
       style="fill:#7bc2d0;fill-opacity:1;stroke-width:1.20919"
       d="m 591.29327,827.09236 c -27.8022,-6.2324 -53.24502,-29.90018 -61.14112,-56.87555 -4.36791,-14.92206 -1.49245,-40.19092 4.90521,-43.10589 4.13152,-1.88245 25.61509,0.91858 38.30026,4.99358 26.57118,8.53577 47.4644,27.59894 54.30542,49.54877 4.29562,13.78279 3.05109,40.71162 -2.07825,44.96859 -2.71627,2.2543 -24.97193,2.55966 -34.29152,0.4705 z"
       id="path4517" />
  </g>
</svg>
