<?xml version="1.0" encoding="UTF-8" standalone="no"?>
<!-- Created with Inkscape (http://www.inkscape.org/) -->

<svg
   version="1.1"
   id="svg98"
   width="1489.4545"
   height="1489.4545"
   viewBox="0 0 1489.4545 1489.4545"
   sodipodi:docname="normal_logo.svg"
   inkscape:version="1.2.2 (b0a8486541, 2022-12-01)"
   xmlns:inkscape="http://www.inkscape.org/namespaces/inkscape"
   xmlns:sodipodi="http://sodipodi.sourceforge.net/DTD/sodipodi-0.dtd"
   xmlns="http://www.w3.org/2000/svg"
   xmlns:svg="http://www.w3.org/2000/svg">
  <defs
     id="defs102" />
  <sodipodi:namedview
     id="namedview100"
     pagecolor="#ffffff"
     bordercolor="#000000"
     borderopacity="0.25"
     inkscape:showpageshadow="2"
     inkscape:pageopacity="0.0"
     inkscape:pagecheckerboard="0"
     inkscape:deskcolor="#d1d1d1"
     showgrid="false"
     inkscape:zoom="0.37172309"
     inkscape:cx="22.866484"
     inkscape:cy="536.68983"
     inkscape:window-width="1876"
     inkscape:window-height="992"
     inkscape:window-x="20"
     inkscape:window-y="20"
     inkscape:window-maximized="1"
     inkscape:current-layer="layer1" />
  <g
     inkscape:groupmode="layer"
     inkscape:label="Image"
     id="g104">
    <rect
       style="fill:#403a37;fill-opacity:1"
       id="rect493"
       width="1692.3029"
       height="1562.2245"
       x="-72.751129"
       y="-37.024548"
       ry="0.029597282" />
  </g>
  <g
     inkscape:groupmode="layer"
     id="layer1"
     inkscape:label="Image 1">
    <path
       style="display:inline;fill:#f9f9f9;stroke-width:0.727273"
       d="m 725.38311,1076.7376 c -2.43928,-0.5307 -6.03928,-1.7791 -8,-2.7743 -5.12624,-2.6019 -11.9976,-8.1415 -14.1104,-11.3757 -1,-1.5308 -4.43637,-6.9434 -7.63637,-12.0281 -3.2,-5.0848 -7.76208,-11.9135 -10.13795,-15.1749 -2.37587,-3.2616 -6.50721,-9.6937 -9.18075,-14.2937 -2.67354,-4.6 -6.5673,-11.1455 -8.65281,-14.5455 -3.24737,-5.2942 -7.68797,-13.48398 -14.31873,-26.40812 -1.2671,-2.46967 -3.31808,-15.29978 -10.83408,-67.77367 -5.20732,-36.35549 -9.65359,-65.14516 -10.1437,-65.68073 -0.71813,-0.78465 -2.01895,-0.72676 -7.34775,0.32669 -9.8157,1.94051 -25.43354,1.78117 -35.1155,-0.35832 -10.21417,-2.25709 -18.58133,-5.28109 -27.79475,-10.04524 -27.16206,-14.04531 -47.11481,-40.35171 -52.62083,-69.37709 -1.56332,-8.24116 -1.44908,-21.94269 0.25128,-30.13803 2.51471,-12.12034 8.07731,-24.07994 12.91683,-27.77122 2.51217,-1.91613 3.20159,-2.06098 10.98521,-2.30806 28.9239,-0.91817 60.29836,8.51857 81.12359,24.40015 6.87693,5.24444 15.98493,14.85251 20.47166,21.59564 12.33246,18.53454 16.98735,39.17556 14.11172,62.57505 -0.63705,5.18385 -0.62896,7.34669 0.0345,9.23025 0.47658,1.35302 5.42773,34.04182 11.00258,72.64182 5.57483,38.6 10.51769,72.30909 10.98413,74.90909 1.20251,6.70298 9.07279,20.25978 26.5994,45.81819 1.78294,2.6 6.8601,10.2143 11.28256,16.9206 l 8.04085,12.1935 3.4543,-0.4583 c 4.53074,-0.601 7.18518,0.349 14.4998,5.1891 9.1957,6.0849 9.76298,6.0849 18.95869,0 7.31461,-4.8401 9.96909,-5.7901 14.49978,-5.1891 l 3.45432,0.4583 8.0408,-12.1935 c 4.42248,-6.7063 9.50597,-14.3206 11.29666,-16.9206 16.96967,-24.63936 25.38902,-39.14954 26.58531,-45.81819 0.46647,-2.6 5.40931,-36.30909 10.98414,-74.90909 5.57484,-38.6 10.52604,-71.2888 11.00262,-72.64182 0.66349,-1.88356 0.67156,-4.0464 0.0342,-9.23025 -5.05825,-41.16 14.14175,-76.05505 52.24575,-94.95395 18.31905,-9.08595 42.53178,-14.28129 63.46123,-13.61689 7.78364,0.24708 8.47302,0.39193 10.98524,2.30806 4.83949,3.69128 10.4021,15.65088 12.9168,27.77122 1.70036,8.19534 1.81461,21.89687 0.25127,30.13803 -3.50698,18.48742 -12.01033,34.68924 -25.68233,48.93346 -15.20669,15.84319 -32.79607,25.64123 -54.73323,30.48887 -9.68197,2.13949 -25.29978,2.29883 -35.11549,0.35832 -5.32822,-1.05338 -6.62902,-1.1112 -7.34386,-0.32669 -0.48443,0.53171 -4.96967,29.58713 -10.13905,65.68073 -7.68727,53.67374 -9.55062,65.28618 -10.91164,68 -4.16116,8.29731 -12.87818,24.24139 -15.36138,28.09709 -1.51127,2.3466 -4.96953,8.1206 -7.68502,12.8311 -2.71549,4.7104 -6.37789,10.4377 -8.13861,12.7272 -2.81579,3.6614 -9.03266,13.1546 -16.06197,24.5264 -3.69862,5.9836 -4.41476,6.8131 -8.87731,10.2823 -9.85731,7.6629 -15.12058,8.9835 -35.55149,8.92 -9.20334,-0.028 -16.17432,-0.3996 -18.9805,-1.0101 z M 892.72725,828.69699 c 16.16509,-2.03527 35.27519,-11.968 47.75316,-24.82029 7.83876,-8.07389 14.06392,-18.00261 18.02167,-28.74327 4.27193,-11.59338 4.79891,-29.03949 1.22422,-40.52894 -2.61055,-8.39069 -3.05789,-8.78956 -9.83906,-8.77213 -10.28152,0.0264 -28.26058,3.14667 -35.13665,6.09802 -1.48713,0.63825 -3.33178,1.16051 -4.0992,1.16051 -2.16807,0 -17.38356,8.05338 -23.17774,12.26771 -2.86371,2.0829 -7.97579,6.72858 -11.36,10.3237 -5.08459,5.40124 -6.85535,7.95433 -10.19571,14.69986 -2.22328,4.48982 -4.71557,10.78145 -5.53826,13.98145 -2.91636,11.34342 -1.70022,37.75382 1.93018,41.91651 1.44248,1.65396 4.38182,2.23876 14.05375,2.79585 8.4288,0.48546 9.73884,0.45513 16.36364,-0.37898 z m -272.86658,-0.41207 c 2.87662,-0.44327 5.7553,-1.08385 6.39706,-1.42349 0.65835,-0.34836 1.76763,-2.9288 2.54546,-5.92131 1.9459,-7.48625 1.99255,-29.98378 0.0766,-36.94014 -3.15698,-11.46219 -9.24764,-21.70895 -18.19072,-30.60371 -16.40461,-16.316 -39.4084,-25.47564 -66.86201,-26.62302 l -10.7184,-0.44796 -1.16109,2.77891 c -5.78031,13.83418 -5.59514,33.35752 0.46549,49.07759 3.59828,9.33324 13.26676,23.22517 20.51859,29.48153 4.74354,4.09244 16.369,11.61549 21.6138,13.98676 14.36813,6.49608 30.69905,8.88713 45.31523,6.63484 z m 103.03068,20.92974 c -2.62151,-1.36814 -19.45106,-18.21265 -23.3758,-23.3965 -1.81705,-2.4 -3.89301,-5.50909 -4.61324,-6.90909 -0.72023,-1.4 -1.91312,-3.36364 -2.65085,-4.36364 -0.83163,-1.12727 -1.63366,-4.15491 -2.11051,-7.96727 -4.29227,-34.31498 -25.12315,-78.48298 -54.55291,-115.66909 -7.90547,-9.989 -26.94687,-28.98788 -35.22442,-35.14577 -7.13455,-5.30758 -15.24615,-9.77431 -21.35231,-11.75784 -4.24485,-1.3789 -7.2596,-1.25516 -15.7386,0.64597 -16.72016,3.74895 -35.62429,-1.4284 -51.61571,-14.1362 -2.99924,-2.38339 -5.91229,-4.33343 -6.47344,-4.33343 -0.56115,0 -3.13112,0.98779 -5.71106,2.19508 -20.12109,9.4158 -47.83438,3.13542 -74.01797,-16.77392 -28.30761,-21.52441 -53.67348,-55.48462 -70.8076,-94.7983 -7.20928,-16.54145 -13.59553,-37.88752 -16.53335,-55.26279 -2.52521,-14.935 -2.64505,-42.42929 -0.21256,-48.76824 0.22454,-0.58516 -1.12504,-2.53134 -3.20606,-4.62334 -5.24075,-5.2684 -7.62344,-10.60184 -7.99217,-17.88976 -0.38356,-7.58099 1.49251,-12.97663 6.29841,-18.11452 4.93356,-5.27438 9.28719,-7.24638 16.81697,-7.61735 8.46477,-0.41703 13.14276,1.34136 18.90909,7.10769 5.54312,5.54312 7.56788,10.5032 7.57049,18.54546 10e-4,4.84411 -0.34409,6.57885 -2.06462,10.3618 -2.43904,5.36273 -6.85352,9.73109 -12.39982,12.27027 -2.13179,0.97597 -4.06223,2.25982 -4.28986,2.853 -0.22762,0.59319 -0.7864,4.75626 -1.24173,9.25127 -3.68553,36.38384 13.20052,88.53874 41.73361,128.90001 8.27683,11.70795 13.24762,17.56982 23.7436,28 19.72447,19.60082 39.9981,30.669 56.40287,30.79259 6.26397,0.0472 12.63416,-1.34006 13.22512,-2.88008 0.20098,-0.52376 -0.61835,-2.68198 -1.82074,-4.79603 C 471.13017,572.4851 464.96625,534.6135 472.11956,497.61839 l 1.58549,-8.19978 -2.2677,-2.34567 c -6.36423,-6.58306 -8.17291,-17.78711 -4.25531,-26.3599 8.69191,-19.02028 35.10491,-19.80323 44.20887,-1.31046 6.80421,13.8213 -0.10303,30.54999 -14.26539,34.54943 -1.61904,0.45722 -3.33282,1.18688 -3.80839,1.62146 -2.09744,1.91667 -3.44773,14.23909 -3.47362,31.69924 -0.0251,16.9114 0.36438,21.13475 2.9649,32.15165 1.62365,6.87852 1.9631,7.04834 9.99397,4.99952 33.59739,-8.57128 64.27456,-38.11321 86.33795,-83.14289 l 4.52495,-9.23507 -2.73435,-3.0266 c -4.52497,-5.0086 -6.51198,-10.1997 -6.54181,-17.09058 -0.0231,-5.32316 0.21924,-6.36849 2.51995,-10.87196 4.50424,-8.81671 12.14938,-13.42043 22.28654,-13.42043 9.41496,0 17.22151,4.95852 21.50492,13.65935 2.13948,4.3459 2.38934,5.50594 2.38068,11.05263 -0.008,5.29155 -0.30584,6.80313 -2.03642,10.34428 -2.44773,5.00858 -7.94552,10.16968 -12.70161,11.92373 -4.04458,1.49165 -5.77063,2.82135 -6.40484,4.9341 -0.25433,0.84725 -2.9925,6.61442 -6.08484,12.81592 -23.73995,47.60919 -58.01319,80.12759 -95.57815,90.68442 -3.94854,1.10965 -7.33459,2.42255 -7.52454,2.91756 -1.03883,2.70715 11.95008,21.14954 19.43099,27.5892 12.67182,10.90807 26.65022,14.40929 41.93935,10.5047 3.26665,-0.83424 7.21411,-1.5168 8.77213,-1.5168 9.04235,0 26.70503,7.79652 39.83397,17.5832 9.96236,7.42622 28.20537,25.5793 37.87626,37.68952 22.15359,27.74151 40.67697,60.86625 50.89483,91.01345 4.6922,13.844 6.78817,23.14175 8.71106,38.64218 0.55071,4.43928 4.70003,9.56371 14.88501,18.38313 4.02877,3.48858 8.13059,7.71753 9.11524,9.39775 1.97942,3.3776 2.3144,7.708 0.8064,10.42545 -2.19142,3.94916 -8.05506,5.65847 -12.1247,3.53454 z M 497.39638,481.94297 c 1.61618,-1.06954 3.59952,-3.24029 4.40742,-4.82392 2.69934,-5.29114 1.45659,-13.18492 -2.66214,-16.90951 -3.44241,-3.113 -10.16581,-4.36478 -14.54887,-2.70874 -4.67209,1.76524 -8.9245,7.98084 -8.9245,13.04464 0,5.22611 4.7048,11.71452 9.59923,13.23836 3.35652,1.04501 9.08091,0.17621 12.12886,-1.84083 z m 115.12647,-16.52045 c 5.6967,-1.58212 9.97472,-7.40823 10.00661,-13.62771 0.0215,-4.18421 -1.41016,-7.34429 -4.59341,-10.13922 -11.19826,-9.8322 -28.01545,2.74881 -21.60472,16.16258 2.22429,4.65407 3.85729,6.19056 7.69958,7.24456 4.55488,1.24945 5.19147,1.27643 8.49194,0.35979 z M 356.92251,403.238 c 3.59379,-1.50158 5.89617,-3.7173 7.52109,-7.23801 3.81784,-8.27216 -0.95422,-18.22313 -9.94641,-20.74079 -11.89616,-3.33072 -21.75948,10.38252 -15.34288,21.33162 3.88987,6.63757 11.22428,9.38141 17.7682,6.64718 z m 400.58103,445.5283 c -2.79011,-1.83927 -3.99156,-4.11229 -4.02327,-7.61149 -0.0393,-4.33956 2.74371,-8.25265 10.87978,-15.29789 10.18502,-8.81942 14.33433,-13.94385 14.88509,-18.38313 1.22604,-9.88341 2.11898,-15.06894 3.77382,-21.9149 8.1448,-33.69528 29.296,-74.51136 55.832,-107.74073 9.67091,-12.11022 27.91396,-30.2633 37.87629,-37.68952 13.12894,-9.78668 30.79163,-17.5832 39.83396,-17.5832 1.55803,0 5.50545,0.68256 8.77214,1.5168 18.59789,4.74959 34.77811,-1.3211 49.5496,-18.59061 5.63884,-6.59239 12.45782,-17.84316 11.82073,-19.50329 -0.18996,-0.49501 -3.576,-1.80791 -7.52451,-2.91756 -37.56705,-10.55741 -71.91898,-43.15449 -95.56938,-90.68716 -3.08487,-6.2 -5.82196,-11.96593 -6.0824,-12.81318 -0.65083,-2.11677 -2.3776,-3.4447 -6.41607,-4.9341 -4.75607,-1.75405 -10.25389,-6.91515 -12.7016,-11.92373 -1.73062,-3.54115 -2.02815,-5.05273 -2.03644,-10.34428 -0.009,-5.54669 0.24124,-6.70673 2.38066,-11.05263 4.28342,-8.70083 12.08996,-13.65935 21.50494,-13.65935 10.13717,0 17.78233,4.60372 22.28655,13.42043 2.30072,4.50347 2.54298,5.5488 2.51992,10.87196 -0.0298,6.89088 -2.0168,12.08198 -6.54181,17.09058 l -2.73433,3.0266 4.52494,9.23507 c 22.06342,45.02968 52.74058,74.57161 86.33797,83.14289 8.03083,2.04882 8.37032,1.879 9.99396,-4.99952 2.60051,-11.0169 2.98996,-15.24025 2.96494,-32.15165 -0.0262,-17.46015 -1.37621,-29.78257 -3.47367,-31.69924 -0.47556,-0.43458 -2.18931,-1.16424 -3.80836,-1.62146 -10.412,-2.94034 -17.66146,-13.65418 -16.93709,-25.03088 0.9824,-15.42796 16.14007,-26.30216 30.7448,-22.05646 11.2325,3.26539 18.1755,12.31132 18.1755,23.68077 0,4.42385 -0.3805,6.27911 -2.0137,9.81818 -1.1075,2.4 -3.0341,5.41919 -4.2814,6.70932 l -2.2677,2.34567 1.5856,8.19978 c 6.8653,35.50572 1.2696,72.90969 -15.5176,103.72597 -2.25496,4.13941 -3.94339,7.93399 -3.75212,8.4324 0.57491,1.49818 7.01762,2.88062 13.20742,2.83399 23.3983,-0.17627 54.9142,-23.15902 79.6241,-58.06531 29.063,-41.05575 45.9732,-92.93054 42.256,-129.62729 -0.4554,-4.49501 -1.0141,-8.65808 -1.2418,-9.25127 -0.2275,-0.59318 -2.158,-1.87703 -4.2898,-2.853 -5.5463,-2.53918 -9.9608,-6.90754 -12.3999,-12.27027 -1.7205,-3.78295 -2.0661,-5.51769 -2.0645,-10.3618 0,-8.04226 2.0273,-13.00234 7.5704,-18.54546 5.7664,-5.76633 10.4443,-7.52472 18.9091,-7.10769 7.5298,0.37097 11.8834,2.34297 16.817,7.61735 4.8059,5.13789 6.6819,10.53353 6.2984,18.11452 -0.3688,7.28792 -2.7514,12.62136 -7.9922,17.88976 -2.081,2.092 -3.4306,4.03818 -3.206,4.62334 2.4325,6.33895 2.3126,33.83324 -0.2126,48.76824 -12.3587,73.09386 -65.3318,148.38069 -117.2946,166.7025 -16.6107,5.85685 -31.7345,5.90233 -44.06429,0.13251 -2.57993,-1.20729 -5.14989,-2.19508 -5.71106,-2.19508 -0.56116,0 -3.47418,1.95004 -6.47345,4.33343 -15.99142,12.7078 -34.89557,17.88515 -51.61571,14.1362 -8.47898,-1.90113 -11.49375,-2.02487 -15.73862,-0.64597 -6.10611,1.98353 -14.21774,6.45026 -21.35229,11.75784 -7.97811,5.93512 -27.15352,24.98115 -34.68887,34.45477 -29.84567,37.52278 -50.77942,81.82874 -55.13425,116.691 -0.4408,3.52909 -1.25382,6.53352 -2.0664,7.63636 -0.7368,1 -1.92895,2.96364 -2.64917,4.36364 -0.72021,1.4 -2.7944,4.50909 -4.60923,6.90909 -4.20706,5.56349 -21.64589,22.83214 -23.93666,23.70305 -2.79141,1.06131 -6.20771,0.75796 -8.50276,-0.75491 z M 1007.8992,481.65581 c 3.2349,-2.57177 5.9245,-7.62131 5.903,-11.08265 -0.032,-5.11421 -4.2668,-11.30653 -8.9405,-13.07236 -4.383,-1.65604 -11.10646,-0.40426 -14.54886,2.70874 -5.79142,5.23723 -5.31905,16.774 0.86713,21.17898 3.49105,2.48583 5.33229,2.98725 9.81013,2.67158 3.3285,-0.23465 4.8428,-0.76161 6.9091,-2.40429 z M 885.07015,465.10559 c 4.24168,-1.12876 5.77113,-2.51285 8.05302,-7.28742 3.80182,-7.95495 -0.63796,-16.98405 -9.5,-19.32002 -5.97309,-1.57446 -13.33236,2.08881 -15.73156,7.83075 -3.00531,7.19284 0.93215,16.19316 8.22124,18.79207 3.55505,1.26754 4.14021,1.26654 8.9573,-0.0154 z m 256.82135,-61.58048 c 8.8911,-3.0157 13.1601,-13.53373 8.7081,-21.45502 -1.8481,-3.28825 -6.3727,-6.55244 -10.0348,-7.23945 -5.5774,-1.04635 -12.9976,3.1305 -15.5519,8.75426 -5.2085,11.46764 5.2902,23.87075 16.8786,19.94021 z"
       id="path232" />
    <path
       style="fill:#9ecdf6;fill-opacity:1;stroke-width:0.672544"
       d="m 594.86486,827.53853 c -12.21489,-2.26907 -21.59882,-6.23842 -33.23025,-14.05622 -10.97389,-7.37584 -19.1377,-16.62656 -25.87871,-29.32414 -8.53535,-16.07749 -10.03931,-37.21009 -3.82949,-53.80949 l 1.37117,-3.66527 9.69446,0.4609 c 17.07754,0.8119 30.59108,3.92272 43.30498,9.96882 9.42982,4.48436 15.52254,8.6734 22.81208,15.68442 7.06224,6.7924 11.97249,13.5284 15.66053,21.48349 4.23586,9.13672 4.95047,13.13545 4.95514,27.72726 0.006,18.1171 -1.37317,23.81541 -6.10975,25.24733 -4.1518,1.25514 -22.54227,1.4361 -28.75016,0.2829 z"
       id="path779" />
    <path
       style="fill:#f5f0a2;fill-opacity:1;stroke-width:0.672544"
       d="m 873.15458,828.52662 c -8.98777,-0.69119 -10.2984,-1.3484 -11.81695,-5.9255 -1.71809,-5.17858 -2.63415,-19.10179 -1.87199,-28.45266 0.74048,-9.08497 2.08731,-13.55538 7.23412,-24.01157 3.34782,-6.80139 4.53181,-8.4504 10.56447,-14.71372 7.98836,-8.2938 12.12135,-11.3758 22.72049,-16.94282 13.96027,-7.33241 33.22876,-12.08747 49.1163,-12.12089 7.0355,-0.0148 7.73646,0.50215 9.84063,7.2573 2.95692,9.49275 3.55982,19.9319 1.78362,30.88355 -1.15241,7.10551 -3.10351,12.6761 -7.19885,20.55343 -11.53574,22.18883 -35.80814,39.41523 -60.85689,43.19085 -7.08545,1.06799 -8.94539,1.09487 -19.51495,0.28203 z"
       id="path990" />
  </g>
</svg>
